PathFileType	3	(X/Y/Z)	E:\ViconData\BIOM9541 2025\Week 7\Wed1100\Hanif high squat 5 Squat 01.trc
DataRate	CameraRate	NumFrames	NumMarkers	Units	OrigDataRate	OrigDataStartFrame	OrigNumFrames
200.0	200.0	8	19	mm	200.0	363	1450	
Frame#	Time	C7			CLAV			RBAK			LASI			RASI			LPSI			RPSI			LTHI			LKNE			LTIB			LANK			LHEE			LTOE			RTHI			RKNE			RTIB			RANK			RHEE			RTOE			
		X1	Y1	Z1	X2	Y2	Z2	X3	Y3	Z3	X4	Y4	Z4	X5	Y5	Z5	X6	Y6	Z6	X7	Y7	Z7	X8	Y8	Z8	X9	Y9	Z9	X10	Y10	Z10	X11	Y11	Z11	X12	Y12	Z12	X13	Y13	Z13	X14	Y14	Z14	X15	Y15	Z15	X16	Y16	Z16	X17	Y17	Z17	X18	Y18	Z18	X19	Y19	Z19	
363	1.81	325.81653	1269.3413	-1219.7122	182.37671	1193.9199	-1215.4291	350.995	1181.1971	-1364.7437	236.74448	828.72614	-1085.5374	232.4108	837.2634	-1346.1985	403.3302	895.0282	-1169.6926	403.45	892.5028	-1238.5688	208.22383	549.18848	-964.82581	176.79703	410.20279	-953.85907	250.40579	213.25192	-940.32275	304.43805	64.297234	-965.78906	331.79163	52.196785	-1024.031	162.03966	37.072998	-951.34985	276.53088	704.64349	-1421.9069	195.02296	406.68848	-1469.7534	220.24434	322.42288	-1479.4137	299.332	71.654045	-1436.7158	324.19547	50.223877	-1368.8939	163.05054	40.720367	-1462.3203	
364	1.815	325.56644	1271.7312	-1219.5905	182.33276	1196.6403	-1216.4955	350.80426	1183.7164	-1364.6451	235.94522	831.13013	-1085.5911	231.9834	839.2206	-1345.743	402.5903	897.6081	-1170.0061	402.7148	894.912	-1238.8683	209.07521	550.21405	-965.72913	178.82277	410.94736	-955.18372	251.33733	213.63809	-940.76532	304.60187	64.280006	-965.79901	331.91211	52.009285	-1023.8786	162.04903	37.04837	-951.45856	276.48013	706.23907	-1421.5995	197.14546	407.42316	-1468.5773	222.12263	322.97504	-1478.4994	299.504	71.631683	-1436.7129	324.3407	50.162621	-1369.0238	163.04352	40.676849	-1462.2832	
365	1.82	325.37	1274.1578	-1219.4241	181.83609	1199.0967	-1216.709	350.5015	1186.0526	-1364.4851	235.11383	833.4751	-1085.6956	231.3669	841.5311	-1345.821	401.7959	900.0724	-1169.9648	402.3024	896.8457	-1243.2595	210.05388	551.20221	-966.69751	180.92444	411.70129	-956.51746	252.334	214.00862	-941.31104	304.70337	64.310837	-965.72107	331.99948	51.933617	-1023.7791	162.02588	37.05946	-951.56885	276.35617	707.64972	-1421.2548	199.22406	408.14584	-1467.3193	223.91902	323.58047	-1477.5433	299.65323	71.587532	-1436.7036	324.49496	50.130745	-1369.0718	163.04169	40.656078	-1462.226	
366	1.825	325.21906	1276.5411	-1219.3545	181.75635	1201.6699	-1216.1195	349.86917	1187.9539	-1363.8348	234.31398	835.66443	-1085.8473	230.6794	843.8641	-1345.8868	401.0298	902.5664	-1169.858	401.6029	899.3598	-1243.2653	211.00519	552.18652	-967.63507	183.02928	412.39383	-957.81311	253.3257	214.32149	-941.83459	304.80383	64.316345	-965.71844	332.15158	51.901554	-1023.7354	162.05338	37.109318	-951.71118	276.26019	709.42914	-1421.0223	201.35104	408.89145	-1466.1044	225.74237	324.20978	-1476.5643	299.81641	71.639488	-1436.6942	324.55301	50.043018	-1369.1385	163.05174	40.698723	-1462.2034	
367	1.83	325.01303	1278.8278	-1219.2369	181.94534	1203.6573	-1215.7399	349.61877	1190.2908	-1363.7126	233.57065	837.8985	-1085.9005	230.0116	846.1047	-1345.9261	400.2138	904.9701	-1169.681	400.4913	902.4093	-1238.3136	211.91882	553.02069	-968.5777	185.10777	413.08841	-959.05481	254.28691	214.68965	-942.31439	304.85345	64.250282	-965.65369	332.29831	51.907055	-1023.7115	162.06123	37.145535	-951.78693	276.13971	711.02698	-1420.7382	203.46321	409.70108	-1464.9375	227.55447	324.85623	-1475.6163	300.00162	71.693665	-1436.6649	324.68784	50.058395	-1369.0752	163.05495	40.757843	-1462.1575	
368	1.835	324.83496	1281.0466	-1219.0641	181.32275	1205.9467	-1215.1908	349.78171	1192.9487	-1364.2266	232.70285	840.01294	-1085.9069	229.2426	848.5922	-1346.4807	399.3939	907.3512	-1169.6368	400.0443	903.9752	-1243.2919	212.90997	553.9339	-969.51941	187.27155	413.73611	-960.38293	255.2701	214.93951	-942.88171	304.98007	64.240128	-965.67096	332.45917	51.877022	-1023.7322	162.0979	37.142738	-951.90576	275.98407	712.52313	-1420.3899	205.61232	410.40933	-1463.6522	229.37912	325.45203	-1474.6749	300.18433	71.738159	-1436.6387	324.84006	50.093132	-1369.1173	163.06909	40.791344	-1462.1405	
369	1.84	324.72665	1283.1487	-1218.9944	181.16228	1208.4183	-1216.4158	349.48944	1195.1019	-1364.0605	231.91154	842.09814	-1086.0446	228.7147	850.3131	-1346.0251	398.5945	909.6295	-1169.7173	398.9443	906.9481	-1238.8318	213.88905	554.84644	-970.42035	189.35791	414.4332	-961.63977	256.20383	215.31383	-943.30951	305.54279	64.57251	-965.55182	332.57101	51.763542	-1023.7324	162.09618	37.109234	-951.98041	275.87775	713.88422	-1420.1346	207.7735	411.06903	-1462.4037	231.25661	325.94385	-1473.715	300.34778	71.68766	-1436.6079	324.95068	49.95797	-1369.2002	163.11209	40.708054	-1462.062	
370	1.845	324.59579	1285.1924	-1218.9103	179.51312	1212.3905	-1208.7205	348.98682	1196.8643	-1363.4962	231.0817	844.19629	-1086.0889	227.8533	852.5894	-1346.5612	397.7427	911.8721	-1169.762	398.4857	908.6896	-1243.0806	214.84476	555.61469	-971.37708	191.42279	415.0365	-962.87915	257.16235	215.54471	-943.89221	305.45737	64.571587	-965.5188	332.68207	51.668137	-1023.7423	162.09731	37.097012	-952.078	275.68262	715.25183	-1419.7582	209.93111	411.75076	-1461.1774	233.06868	326.46503	-1472.7637	300.52798	71.656013	-1436.5682	325.06796	49.890469	-1369.2646	163.10275	40.686852	-1462.0352	
